# xmcd
#
# Track frame offsets: 
#        150
#        17633
#        35278
#        55563
#        67442
#        88831
#        103505
#        120462
#        138213
#        153380
#        178525
#        196592
#        211808
#
# Disc length: 3088 seconds
#
# Revision: 1
# Processed by: cddbd v1.5.2PL0 Copyright (c) Steve Scherf et al.
# Submitted via: ExactAudioCopy v1.0b1
#
DISCID=a50c0e0d
DTITLE=周杰伦 - 范特西
DYEAR=2002
DGENRE=R&B
TTITLE0=爱在西元前
TTITLE1=爸我回来了
TTITLE2=简单爱
TTITLE3=忍者
TTITLE4=开不了口
TTITLE5=上海一九四三
TTITLE6=对不起
TTITLE7=威廉古堡
TTITLE8=双截棍
TTITLE9=安静
TTITLE10=蜗牛
TTITLE11=你比从前快乐
TTITLE12=世界末日
EXTD=
EXTT0=
EXTT1=
EXTT2=
EXTT3=
EXTT4=
EXTT5=
EXTT6=
EXTT7=
EXTT8=
EXTT9=
EXTT10=
EXTT11=
EXTT12=
PLAYORDER=
